<svg xmlns="http://www.w3.org/2000/svg" viewBox="0 0 105 105"><defs><style>.cls-1{fill:#088178;}</style></defs><g id="Capa_2" data-name="Capa 2"><g id="Capa_1-2" data-name="Capa 1"><g id="Capa_2-2" data-name="Capa 2"><g id="Capa_2-2-2" data-name="Capa 2-2"><path class="cls-1" d="M42.11,93H83.72a5.75,5.75,0,0,1,5.45,6h0a5.75,5.75,0,0,1-5.45,6H42.11a5.75,5.75,0,0,1-5.45-6h0A5.75,5.75,0,0,1,42.11,93Z"/><path class="cls-1" d="M99.57,23H31.34L28.18,5.33a6.11,6.11,0,0,0-2.25-3.79h0A5.06,5.06,0,0,0,22.29,0H5.45A5.75,5.75,0,0,0,0,6a5.75,5.75,0,0,0,5.45,6H18.27L28.59,69.7v.11l.16.88a3.43,3.43,0,0,0,.09.44l.09.35a14,14,0,0,0,8.66,9.84,11.83,11.83,0,0,0,4,.71H84.9c5.52,0,10.46-3.81,12.36-9.54h0l.83-4.32,6.71-37.54.19-1.1c0-.2,0-.41,0-.61A5.74,5.74,0,0,0,99.57,23ZM89.51,53.88,86.59,70H39.75c-.11-1-2.87-16.08-2.87-16.08L33.49,35H92.93Z"/></g></g></g></g></svg>