<svg xmlns="http://www.w3.org/2000/svg" viewBox="0 0 106 96"><defs><style>.cls-1{fill:#088178;}</style></defs><g id="Capa_2" data-name="Capa 2"><g id="Capa_2-2" data-name="Capa 2"><rect class="cls-1" x="37" y="85" width="53" height="11" rx="5.5"/><path class="cls-1" d="M100.5,21H31.63L28.44,4.87a5.49,5.49,0,0,0-2.27-3.46l0,0A5.4,5.4,0,0,0,22.5,0H5.5a5.5,5.5,0,0,0,0,11H18.44L28.86,63.73s0,.07,0,.1l.16.8a2.59,2.59,0,0,0,.09.4l.09.32a13.29,13.29,0,0,0,8.74,9A13.14,13.14,0,0,0,42,75H85.69a13.31,13.31,0,0,0,12.48-8.72.06.06,0,0,0,0,0L99,62.33,105.78,28l.19-1a5.12,5.12,0,0,0,0-.56A5.5,5.5,0,0,0,100.5,21ZM90.34,49.26,87.4,64h-.9s-46.2,0-46.38,0c-.11-.92-2.9-14.7-2.9-14.7L33.8,32h60Z"/></g></g></svg>