<svg xmlns="http://www.w3.org/2000/svg" viewBox="0 0 821.63 240.64"><g id="Capa_2" data-name="Capa 2"><g id="Capa_9" data-name="Capa 9"><path d="M187.89,86.38,190,85c1,0,1.56.28,1.74.83a7.37,7.37,0,0,0,1.41.7,2.9,2.9,0,0,1,1.67,1.68L195,90l.4,1.67a3.55,3.55,0,0,1-1,2.58q-1,1-4.08,1a4.17,4.17,0,0,1-2.41-1l-.94-.41-.53-.14a14.69,14.69,0,0,1-2.41.42c-1.43.18-2.23.41-2.41.69a18.81,18.81,0,0,0-3.74,1.4c0,.19-.63.51-1.87,1s-2.28.88-3.08,1.25a6.09,6.09,0,0,0-1.74.84c-.8.28-3.35,1.58-7.63,3.91l-5.62,3.06-10.56,7.12-.41.28a21.09,21.09,0,0,0-3.74,2.65,20.67,20.67,0,0,1-3.08,2.37c-1.16.75-1.87,1.21-2.14,1.4l-3.48,1.95-4.68,3.07-4.55,3.07c-.53.37-1.47,1-2.81,2s-2.49,1.8-3.47,2.45a9.5,9.5,0,0,0-.88.76,20.93,20.93,0,0,1-3.27,1.89q-1.2,1.11-1.47,1.11a7.07,7.07,0,0,0-.94.7,22.42,22.42,0,0,1-2.41,1.61c-1.16.69-1.92,1.14-2.27,1.32a25.54,25.54,0,0,1-6.29,3.35c.18.09-.27.39-1.34.91a15.7,15.7,0,0,1-4,1.18,17.69,17.69,0,0,1-5.08.56,12,12,0,0,1-5.36-1.18,9.21,9.21,0,0,1-3.74-3.28,33.35,33.35,0,0,1-2.28-5,31.51,31.51,0,0,1-.8-8.51,27.24,27.24,0,0,1,.94-6.84l.67-2.79a33.87,33.87,0,0,1,1.67-5.23A46.69,46.69,0,0,1,84.48,108,113.88,113.88,0,0,1,90.63,97.4,29.62,29.62,0,0,1,93,94.33a15.55,15.55,0,0,0,1.34-1.53l.54-.42a49,49,0,0,1,10.83-8.51,16,16,0,0,1,4.55-2l2.54-.28,1.87-.14a27.92,27.92,0,0,1,3.48.35q2.41.34,6.42,3a9.45,9.45,0,0,1,3.35,3.9,4.61,4.61,0,0,1,.67,1.82v2a11,11,0,0,1-1.74,5.58c-1.16,2-1.79,3-1.87,3.21a7.84,7.84,0,0,1-.67,1q-.54.7-5.75,5.86a22.08,22.08,0,0,1-3.48,2.79L112,112.47a46.84,46.84,0,0,1-5.08,2.24q-5,2.08-6,2.09c-.27,0-1.5.19-3.68.56a33.07,33.07,0,0,0-3.55.69h-1.2l-.4.42q-.67,1.26-2.55,6l-1.07,2.79a7.62,7.62,0,0,0-.53,2.66V132a5.17,5.17,0,0,0,.8,2.23,4.82,4.82,0,0,0,4.42,2.09A29.9,29.9,0,0,0,107,132.57a28.87,28.87,0,0,1,5.48-2.38l3.21-1.67a82.48,82.48,0,0,1,7.36-4.19l3.61-2.09,8-5.16q2.94-1.68,7.36-4.75a54.79,54.79,0,0,1,5.88-3.76q.54-.42,1.74-1.26t4.28-2.86c2.05-1.35,3.26-2.16,3.61-2.44l7.36-4.33,6-3.07,5.62-2.09L178,92.1a39.69,39.69,0,0,1,5.89-2.65c.27,0,.71-.28,1.34-.84l1.07-.41c0-.28.26-.63.8-1S187.89,86.48,187.89,86.38ZM120.6,94.89a4,4,0,0,0-.33-1.39c-.23-.56-1-.93-2.48-1.12l-1.2-.14a35.26,35.26,0,0,0-4.68,1.82l-4,2.93a31.31,31.31,0,0,0-3.88,3.62l-2.41,2.24-1.73,1.53-2.68,3.21A24,24,0,0,0,95,110.66c-.22.47-.42.93-.6,1.4l2.14-.14,3.75-.42,3.07-.7,3.35-1.26,2.81-2a14,14,0,0,0,1.33-.91,12.59,12.59,0,0,0,1.34-1l4.28-4.33L119,98.1A8.35,8.35,0,0,0,120.6,94.89Z"/><path d="M264.28,88.2l.4-.7c.53-.47.8-.84.8-1.12L267.62,85c1,0,1.56.28,1.74.83a7.37,7.37,0,0,0,1.41.7,2.9,2.9,0,0,1,1.67,1.68l.13,1.81.4,1.67a3.55,3.55,0,0,1-1,2.58q-1,1-4.08,1a5.36,5.36,0,0,1-2.41-1l-1.07-.55a14.69,14.69,0,0,1-2.41.42c-1.42.18-2.23.41-2.4.69l-1.07.42-3.22,1.4-4.14,2.09q-1.35.28-9.37,4.6l-6.15,2.66-9.23,5q-9.1,5.58-11.51,6.7l-8,4.18a3.17,3.17,0,0,1-1.41.7,5,5,0,0,0-1.4.56q-1.47.84-4.82,3t-5.48,3.28c-.81.46-2.34,1.37-4.62,2.72a60.37,60.37,0,0,1-5.55,3l-2,1a39,39,0,0,1-4.28,2.38l-3.61,1.81a93.12,93.12,0,0,1-10,5.58,14.5,14.5,0,0,1-5.62,1.4,16.7,16.7,0,0,1-7.49-1.47,6.39,6.39,0,0,1-3.62-4.53l-.8-6.14a27.75,27.75,0,0,1,1.61-9,33.68,33.68,0,0,1,4.14-7.75,76.61,76.61,0,0,1,14.32-17.16q.66-.56,4.28-3.91a66.78,66.78,0,0,1,5.35-4.6c1-.65,2.48-1.79,4.48-3.42a66.82,66.82,0,0,1,8-5.37l7-3.35q5.35-2.09,6.09-2.3a12.24,12.24,0,0,1,1.8-.35l5.09-1.4,3.74-.69,1.87-.42h1.34a2.58,2.58,0,0,1,1.14.42l1,.55a7.68,7.68,0,0,1,1.61,2.93v4.89c-.09,0-.16.3-.2.91a2,2,0,0,1-.74,1.46,4,4,0,0,1-1.47,2.44,4,4,0,0,1-2.41,1.47,6.54,6.54,0,0,0-2,.35,6.65,6.65,0,0,1-2,.35l-4,.27-1.61.28-2.41.7-2.47.42a11.8,11.8,0,0,0-3.15,1q-.8.42-4.55,1.81A26.42,26.42,0,0,0,187,98l-9,6a58.46,58.46,0,0,0-5.88,5.72l-4.55,4.47A14.86,14.86,0,0,1,166,116a22.68,22.68,0,0,0-2.14,2.51q-2.15,3.07-4.68,7.4a13.57,13.57,0,0,0-1.21,3.07c-.44,1.49-.71,2.42-.8,2.79L157,133.4c0,1.87,1,2.79,2.94,2.79l4.82-.27a9.33,9.33,0,0,0,3.14-.84c1.38-.56,2.34-.93,2.88-1.12a8.85,8.85,0,0,0,1.8-.63,25.37,25.37,0,0,0,2.34-1,19.94,19.94,0,0,1,2.88-1.47,13.66,13.66,0,0,1,2.34-.9l3.08-1.26,9.76-4,3.48-1.39q.95-.42,6.76-3.7t7.15-3.84l1.75-.9q1.2-.63,6.88-4.26t13.18-8a24.13,24.13,0,0,1,2.54-1.19c1.61-.7,2.77-1.23,3.48-1.6l6.42-3.21a43,43,0,0,0,4.42-2l2.67-1,5.76-2.51a24.55,24.55,0,0,1,4.41-1.68l1.47-.84Z"/><path d="M323.41,98l-5.09,2.1L312.44,103l-13.92,5.3q-.52.13-4.41,1.74a61.5,61.5,0,0,1-6.09,2.24,22.51,22.51,0,0,1-3.54.76l-6.16.7a20.23,20.23,0,0,1-2.67-.28,16.33,16.33,0,0,1-2.28-.42l-.67-.14q-1.86-.14-6.68-4.46l-1.21,5.16-.67,1.54-.26.69-2.68,8.23-.94,2L258,130.33l-2.27,3.77-1.14,1.82a12.49,12.49,0,0,1-1.41,2c-.18.28-.76,1-1.74,2.3s-1.56,2-1.74,2.16q0,.42-3.87,3.91a15.18,15.18,0,0,1-4.29,3.07,6.36,6.36,0,0,1-1.67.7,6.6,6.6,0,0,1-1.4.28l-2,.42a9.28,9.28,0,0,1-4.28-.84,10.59,10.59,0,0,1-4-6.28,7.14,7.14,0,0,1-.67-2.93,18.07,18.07,0,0,1-.4-3.07l.13-3.21.4-1.95a25,25,0,0,1,.87-4.19,32.6,32.6,0,0,1,2.08-5.44l2.4-5.3,1.34-3.07,6.56-11.86a13.29,13.29,0,0,0,1-1.47,10.65,10.65,0,0,1,1.27-1.74l4.28-6.14A14.09,14.09,0,0,1,250.9,89l2-1.39,2.54-1,1.6-.28a5.91,5.91,0,0,1,3.21.84l.67-1A6.64,6.64,0,0,1,265.35,85a6,6,0,0,1,3.34,1.18,9.45,9.45,0,0,1,2.95,3.49,8.69,8.69,0,0,1,1.2,3.7l.27,2.37.4,3.77q0,.14.06,1.32a13.28,13.28,0,0,0,.34,2.3A4.92,4.92,0,0,0,275,105a8.65,8.65,0,0,0,5.08,2.72h2.41q4.95,0,6.42-.56l6.83-2.09q4.54-1,14.31-5.58l11.77-5.58,1.61-.56,4.14-2.79.54-.14c.35,0,.71-.33,1.07-1,.53-.09.85-.28.94-.56l.67-.56.4-.83c.53-.47.8-.84.8-1.12L334.11,85c1,0,1.56.28,1.74.83a7.1,7.1,0,0,0,1.4.7,2.89,2.89,0,0,1,1.68,1.68l.13,1.81.4,1.67a3.55,3.55,0,0,1-1,2.58q-1,1-4.08,1a4.17,4.17,0,0,1-2.41-1l-.67-.13-1.07.27a11.46,11.46,0,0,0-2.81,1.4,2.78,2.78,0,0,0-1.47.7Zm-85.89,37.68.94,2.65a3.49,3.49,0,0,0,1.74.69l2.54-.27a5.14,5.14,0,0,0,2.67-1.4c.72-.56,1.48-1.19,2.28-1.88a20.92,20.92,0,0,0,3.08-3.84q2.67-3.9,2.67-4a1.51,1.51,0,0,1,.14-.35l3.34-6q.52-1.11,2.54-6.41l1.74-5.31a34.18,34.18,0,0,0,.87-3.55c.31-1.54.55-2.59.73-3.14l-.26-1.54-1.87-1.81-1.61-1.26c-.09,0-.33.24-.74.7a10.78,10.78,0,0,1-1.27,1.26l-.67.55a39.57,39.57,0,0,0-5.75,5.17l-.67.69-.67.7L248,109a41.68,41.68,0,0,0-5.76,9.9,12.76,12.76,0,0,0-.67,1.26,21.17,21.17,0,0,0-.93,2.51c-.36,1.12-.63,2-.8,2.51a23.35,23.35,0,0,0-1.74,6l-.41,2.79Z"/><path d="M528.92,97.27l1.74-1,1.07-1,2.68-1.53,1.6-1.26,3.08-2,.54-.14c.26,0,.62-.33,1.06-1a1.37,1.37,0,0,0,.94-.56l.54-.56.4-.83c.44-.28.69-.49.73-.63a1.45,1.45,0,0,0,.07-.49L545.64,85c.9,0,1.43.28,1.61.83a7.53,7.53,0,0,0,1.47.7,2.89,2.89,0,0,1,1.74,1.68V90l.4,1.67a3.68,3.68,0,0,1-.93,2.65c-.63.66-2,1-4.15,1a4.67,4.67,0,0,1-2.41-1l-.53-.13-1.07.27a7.31,7.31,0,0,1-1.28.42,4.82,4.82,0,0,0-1.47.63,1.89,1.89,0,0,0-.6.63l-1.07.42a9.35,9.35,0,0,1-2.41,1.81l-2,1.4-1.47,1.11L530,102a52.73,52.73,0,0,0-5,3.56,25.68,25.68,0,0,1-4.62,3.14l-6.29,4-14.18,11.58q-.27,0-7.49,7c-4.81,4.7-7.36,7.1-7.62,7.19l-8.7,7.81a22.45,22.45,0,0,1-3.08,1.74,15.64,15.64,0,0,1-3.21,1.47l-1.2-.14-2.41-.14-.67-.28a6.59,6.59,0,0,1-2.87-1.53c-1.39-1-2.08-1.72-2.08-2.1l-2-2.51a7,7,0,0,1-1.34-3.63v-2.51a60.83,60.83,0,0,1,.53-9.76l.54-4.19a32.51,32.51,0,0,1,.87-4.88c.58-2.61,1-5.07,1.4-7.4q.68-5.72,1.47-7.12l.54-2.51V97.4c-.09,0-.2.28-.34.84a4.34,4.34,0,0,1-.86,1.68,15.75,15.75,0,0,1-1.61,1.81,9.1,9.1,0,0,0-1.87,2.51,3.16,3.16,0,0,1-.67,1.54,3,3,0,0,0-.67,1.53l-1.47,2.51A4.56,4.56,0,0,1,454,112a4.4,4.4,0,0,0-1.07,2.16q-2.15,4.74-3.35,5.3a99.68,99.68,0,0,1-6.95,11.72A60,60,0,0,1,432.47,144a26.36,26.36,0,0,1-3.75,2.79,9,9,0,0,1-2.27,1.46,5.45,5.45,0,0,1-1.87.63,8.54,8.54,0,0,1-5.62-1.67,12.33,12.33,0,0,1-3.35-5.3l-.13-3.35a19.44,19.44,0,0,1,.13-2.17c.09-.79.22-1.79.4-3s.32-2,.41-2.51a18.33,18.33,0,0,1,1.4-3.83,44.22,44.22,0,0,0,1.67-4.26,24.29,24.29,0,0,1,1.41-3.14,18,18,0,0,0,1-2q4-6.28,6.55-10a52.33,52.33,0,0,1,5.49-6.84l2.81-3.07c-.09-.09.4-.72,1.47-1.88a19.57,19.57,0,0,0,1.74-2,18.76,18.76,0,0,1,1.41-1.61q.86-.9,4.34-3.69a28.46,28.46,0,0,1,2.74-2,12.29,12.29,0,0,0,1.81-1.32,14.34,14.34,0,0,1,3.14-2,10.59,10.59,0,0,1,3.42-1.18l.93-.28,3.48-.42h2.28l1.6.28a2.4,2.4,0,0,1,1.34.63,3.59,3.59,0,0,0,.94.62q1.2-5.43,2-10.74c.09-.74.25-1.6.47-2.58a12,12,0,0,0,.33-2.58q.27-1.39.67-5.58l.14-1v-.7a35.82,35.82,0,0,0,.53-5l.67-4.47.54-3.63a45.44,45.44,0,0,0,.53-4.67,30.15,30.15,0,0,1,.94-5.79,26.87,26.87,0,0,1,1.6-4.47l1.61-.55,2.54-.14,2.14.14c1.07,0,2.41,1.11,4,3.35s2.45,3.95,2.54,5.16l.13,3.49-.4,1.39a30,30,0,0,1-1.67,6.91q-1.68,5.24-1.94,6.49l-.94,3.77L483,66a5.54,5.54,0,0,0-.6,1.6,9.3,9.3,0,0,0-.21,1L478,83.59a24.84,24.84,0,0,1-.46,4.26A19.83,19.83,0,0,1,476.35,92a15.59,15.59,0,0,1-.81,3.07l-2.27,10.33a26.53,26.53,0,0,1-.67,2.72,72.47,72.47,0,0,0-1.33,8.3,37.58,37.58,0,0,0-.68,5.16c-.26,2.89-.4,4.7-.4,5.45l.27,4.74.27,2.51a11,11,0,0,0,5.08,1.4,16.79,16.79,0,0,0,2.95-.91c1.33-.51,2.27-.91,2.81-1.19A25.13,25.13,0,0,1,485,131a49.23,49.23,0,0,0,5-3.77l19.54-16.46,8.82-6.56,2-1.25a57.5,57.5,0,0,1,6.56-4.47ZM426.05,130.61v.84c.18,1.58.93,2.37,2.27,2.37l2.95-1a25.92,25.92,0,0,0,2.87-2,18.27,18.27,0,0,0,2.88-2.37,27.31,27.31,0,0,1,2-2.51,44.93,44.93,0,0,0,3.48-4.75,55.9,55.9,0,0,0,2.81-4.88q.13-.42,2.34-4.6c1.47-2.79,2.43-4.75,2.88-5.86.18.09,1.27-1.79,3.28-5.66s2.92-5.79,2.74-5.79l-.4.14a.94.94,0,0,0-.74.42c-.22.28-.38.42-.47.42a6.66,6.66,0,0,0-2.54,1.12,11,11,0,0,1-2.54,1.25,17,17,0,0,0-3.54,2.1c-2.1,1.39-3.15,2.23-3.15,2.51l-2.27,1.81a2.1,2.1,0,0,0-1.07.84c-.36.47-.63.7-.81.7a6.41,6.41,0,0,0-1.2,1.53c-.89,1-1.85,2.23-2.88,3.63s-1.76,2.37-2.2,2.93a4.42,4.42,0,0,1-1,1.74,4.42,4.42,0,0,0-1,1.75,28.29,28.29,0,0,0-1.81,3.07c-.4.83-.78,1.67-1.13,2.51l-1.34,3.63Z"/><path d="M626.45,86.38,628.59,85c1,0,1.56.28,1.74.83a6.77,6.77,0,0,0,1.4.7,2.89,2.89,0,0,1,1.68,1.68l.13,1.81.4,1.67a3.55,3.55,0,0,1-1,2.58q-1,1-4.08,1a4.17,4.17,0,0,1-2.41-1l-.94-.41-.53-.14a15,15,0,0,1-2.41.42c-1.43.18-2.23.41-2.41.69a18.78,18.78,0,0,0-3.75,1.4c0,.19-.62.51-1.87,1s-2.27.88-3.07,1.25a6.09,6.09,0,0,0-1.74.84q-1.22.42-7.63,3.91l-5.62,3.06-10.57,7.12-.4.28a21.09,21.09,0,0,0-3.74,2.65,21.2,21.2,0,0,1-3.08,2.37c-1.16.75-1.87,1.21-2.14,1.4l-3.48,1.95-4.68,3.07-4.55,3.07c-.54.37-1.47,1-2.81,2s-2.5,1.8-3.48,2.45a8.11,8.11,0,0,0-.87.76,21.51,21.51,0,0,1-3.27,1.89c-.81.74-1.3,1.11-1.48,1.11a7.19,7.19,0,0,0-.93.7,22.42,22.42,0,0,1-2.41,1.61c-1.16.69-1.92,1.14-2.27,1.32a25.74,25.74,0,0,1-6.29,3.35c.17.09-.27.39-1.34.91a15.7,15.7,0,0,1-4,1.18,17.72,17.72,0,0,1-5.09.56,12,12,0,0,1-5.35-1.18,9.31,9.31,0,0,1-3.75-3.28,32.42,32.42,0,0,1-2.27-5,31.51,31.51,0,0,1-.8-8.51,27.67,27.67,0,0,1,.93-6.84l.67-2.79a36.24,36.24,0,0,1,1.67-5.23A44.74,44.74,0,0,1,523,108a111.65,111.65,0,0,1,6.15-10.61,28.31,28.31,0,0,1,2.41-3.07,17,17,0,0,0,1.34-1.53l.53-.42a48.85,48.85,0,0,1,10.84-8.51,15.83,15.83,0,0,1,4.55-2l2.54-.28,1.87-.14a28.27,28.27,0,0,1,3.48.35q2.4.34,6.42,3a9.52,9.52,0,0,1,3.35,3.9,4.59,4.59,0,0,1,.66,1.82v2a11,11,0,0,1-1.74,5.58c-1.16,2-1.78,3-1.87,3.21a6.83,6.83,0,0,1-.67,1q-.52.7-5.75,5.86a21.18,21.18,0,0,1-3.48,2.79l-3.08,1.53a45.91,45.91,0,0,1-5.08,2.24q-4.95,2.08-6,2.09c-.27,0-1.49.19-3.68.56a33.18,33.18,0,0,0-3.54.69h-1.21l-.4.42c-.45.84-1.29,2.84-2.54,6l-1.07,2.79a7.4,7.4,0,0,0-.53,2.66V132a5,5,0,0,0,.8,2.23,4.82,4.82,0,0,0,4.41,2.09,29.87,29.87,0,0,0,13.78-3.76,29.06,29.06,0,0,1,5.49-2.38l3.21-1.67a82.48,82.48,0,0,1,7.36-4.19l3.61-2.09,8-5.16q2.94-1.68,7.36-4.75a54.55,54.55,0,0,1,5.89-3.76q.52-.42,1.74-1.26c.8-.56,2.22-1.51,4.28-2.86s3.25-2.16,3.61-2.44l7.36-4.33,6-3.07,5.62-2.09,1.47-.42a39.87,39.87,0,0,1,5.88-2.65c.27,0,.72-.28,1.34-.84l1.07-.41c0-.28.27-.63.8-1S626.45,86.48,626.45,86.38Zm-67.29,8.51a4,4,0,0,0-.34-1.39c-.22-.56-1.05-.93-2.47-1.12l-1.21-.14a36.43,36.43,0,0,0-4.68,1.82l-4,2.93a31.31,31.31,0,0,0-3.88,3.62l-2.41,2.24-1.74,1.53-2.68,3.21a24.55,24.55,0,0,0-2.2,3.07c-.22.47-.43.93-.6,1.4l2.14-.14,3.74-.42,3.08-.7,3.34-1.26,2.81-2a13.6,13.6,0,0,0,1.34-.91,13.81,13.81,0,0,0,1.34-1l4.28-4.33,2.54-3.21A8.38,8.38,0,0,0,559.16,94.89Z"/><path d="M618.42,89l5.22-3.21c.53-.28,1.36-.69,2.47-1.25a12.86,12.86,0,0,1,5.42-.84h2.28a6.2,6.2,0,0,1,2.27,1.12,18.14,18.14,0,0,1,2,1.39q2.53,2.79,2.54,4.47l-.4,2.23-.4,5.86a29.52,29.52,0,0,1-.47,4.12,30.2,30.2,0,0,0-.47,3.55l-.13,8.66-.27,4.6q0,6.7,2.27,10.32c1.43,2.43,2.52,3.82,3.28,4.19a9.81,9.81,0,0,1,1.67,1l1.47,1.25a8.69,8.69,0,0,0,2.14,1.4l2.68,1.39a7.18,7.18,0,0,0,3.61,1,5.53,5.53,0,0,0,2.81-.56,6.46,6.46,0,0,1,1-.35,5.27,5.27,0,0,0,1.61-.83l1.27-.91q5.88-4.6,7.63-6.07c1.15-1,2.65-2.39,4.48-4.26s3.54-3.57,5.15-5.16l6.29-6.14,9.63-8.37c.35-.18,1.4-.93,3.14-2.23a32.91,32.91,0,0,0,4-3.35l1.6-1.12,4.69-3.62,2.8-2,2.55-1.53c.44,0,1-.42,1.6-1.26l3.08-2,.53-.14c.36,0,.72-.33,1.07-1,.54-.09.85-.28.94-.56l.67-.56.4-.83c.54-.47.8-.84.8-1.12L725.44,85c1,0,1.56.28,1.74.83a7.37,7.37,0,0,0,1.41.7,2.9,2.9,0,0,1,1.67,1.68l.13,1.81.41,1.67a3.56,3.56,0,0,1-1,2.58q-1,1-4.08,1a4.2,4.2,0,0,1-2.41-1l-.67-.13-1.07.27a7.21,7.21,0,0,1-1.2.42,4.63,4.63,0,0,0-1.4.63,1.84,1.84,0,0,0-.61.63l-1.07.42a23.67,23.67,0,0,1-4.41,3.21,4.42,4.42,0,0,0-1.47,1.11,28.18,28.18,0,0,0-4.15,3c-2.14,1.73-3.34,2.58-3.61,2.58l-5.09,3.63-11.5,10.05q-11.64,12.56-12.18,12.56c-.35.28-1.13,1-2.34,2.23s-3.54,3.21-7,6l-2.41,1.67a6.78,6.78,0,0,0-1.54,1.12c-.75.65-1.36,1.16-1.8,1.53q-3.35,3.08-5.82,3.63a20.66,20.66,0,0,1-4.48.56,12.59,12.59,0,0,1-4.89-1.39A15.38,15.38,0,0,1,640,145l-4.15-3.48a24.5,24.5,0,0,1-2.94-3.49q-1.61-2.23-1.74-2.37c-.18-.47-.6-1.49-1.27-3.07a22,22,0,0,1-1.27-3.63,48.61,48.61,0,0,1-.87-6.14,76,76,0,0,1-.47-7.67l-.13-2.24v-1.67l-.14-1.68v-1.67l.4-4.47c0-.37-.13-.55-.4-.55-.44,0-.71.42-.8,1.25a15.73,15.73,0,0,0-2,3.77,15.65,15.65,0,0,1-1.54,2.16c-.84,1.07-1.36,1.75-1.53,2l-1.74,3.34a13.66,13.66,0,0,1-1.61,2.8c-.89,1.3-1.38,2-1.47,2.23a10.31,10.31,0,0,1-.6,1c-.32.47-.87,1.49-1.67,3.07a55.36,55.36,0,0,1-5,7.26l-.4.7q-2.28,3.63-9,8.37l-.67.56a14.83,14.83,0,0,1-6.69,1.95,6.57,6.57,0,0,1-4.34-2,10.73,10.73,0,0,1-2.88-3.7l-.94-2a6.54,6.54,0,0,1-.66-3.07v-1.12a22.87,22.87,0,0,1,1.87-6.21,17.58,17.58,0,0,0,1.34-2.72A33.84,33.84,0,0,1,589,118.2l4.68-6.56,3.21-3.35c.09-.09.29-.33.6-.7s.79-.88,1.41-1.53,1.38-1.4,2.27-2.24l5.35-5.3a22.44,22.44,0,0,0,2.55-1.88,23.84,23.84,0,0,1,2.54-1.89,24.47,24.47,0,0,0,3-2.65A19.87,19.87,0,0,1,618.42,89Zm-28.36,38.65-.27,2a1.75,1.75,0,0,0,2,2l.67.14a6.46,6.46,0,0,0,3.48-1.4q3.07-2.51,3.61-2.37a20.57,20.57,0,0,1,2.54-2.44c1.25-1.07,2.09-1.83,2.54-2.3q6.42-6.7,10-10.89t6.75-8.79l2.55-3.07a10.16,10.16,0,0,1,1.67-2.3c1.11-1.34,1.67-2.25,1.67-2.72s-.27-.56-.8-.56L625,95a10.46,10.46,0,0,0-2.75.35,8.38,8.38,0,0,0-2.61,1.33,7,7,0,0,1-1.87,1.11l-5,3.35A10.53,10.53,0,0,0,610,103a43.85,43.85,0,0,0-5,4.74q.81-.56-5.35,5.86c-.62.19-1.6,1.3-2.94,3.35a13.34,13.34,0,0,1-1.21,1.46c-.62.7-1.18,1.38-1.67,2a23,23,0,0,0-1.4,2.09,10.16,10.16,0,0,0-1.21,2.65A10.5,10.5,0,0,1,590.06,127.68Z"/><path d="M808.52,89.17l3.48-.84c1.42-1,2.14-1.67,2.14-2L816.28,85c1,0,1.56.28,1.74.83a7.1,7.1,0,0,0,1.4.7,2.85,2.85,0,0,1,1.67,1.68l.14,1.81.4,1.67a3.55,3.55,0,0,1-1,2.58q-1,1-4.08,1a4.17,4.17,0,0,1-2.41-1,1.43,1.43,0,0,1-.74-.76q-.33-.63-.6-.63c-1.43,0-3.26.09-5.49.28a12.08,12.08,0,0,0-4.54,1l-3.88,1.53-2.41.56a7.43,7.43,0,0,0-1.27.56,4.61,4.61,0,0,1-1.94.55l-1.07.42Q791.66,98,785,101l-3.61,1.4L778.42,104a12.7,12.7,0,0,0-3.48,1.4l-2.81,1.39-7.36,2.37-3.07,1.4a10,10,0,0,1-3.61,1.26l-8.7,4.6-1.87,1.26-1.14.56c-.58.27-.87.51-.87.69a6.6,6.6,0,0,1-1.81,1,10,10,0,0,0-2.34,1.46l.67,4.19a15.4,15.4,0,0,1,.27,3.35,27.4,27.4,0,0,1-.94,7.81l-.27,1-.8,1.67a10.53,10.53,0,0,0-.93,1.75,18.19,18.19,0,0,1-1.88,3l-1.2,1.53a12.33,12.33,0,0,0-2.54,2.24l-2.28,2.37L730,151.4l-2.14,2a21.33,21.33,0,0,0-2.68,1.67,4.67,4.67,0,0,1-1.73,1l-4.55,2.51a26.85,26.85,0,0,1-5.29,1.67,25.38,25.38,0,0,1-5.28.84l-1.61.14-2.27-.28c-2.68-.37-4.19-.74-4.55-1.11l-.67-.56a4.34,4.34,0,0,1-2.41-3.91v-.7l.14-.83q0-2.52,2.87-6.7a61.5,61.5,0,0,1,7.56-8.79,14.91,14.91,0,0,0,2.41-1.82c1.34-1.11,2.18-1.86,2.54-2.23a25.75,25.75,0,0,1,2.21-1.6,31.89,31.89,0,0,1,3-1.89,44.11,44.11,0,0,0,5-3.62l.54-.63a8.62,8.62,0,0,1,2.13-1.47l.94-1a36.17,36.17,0,0,1-.27-4.6,29.54,29.54,0,0,0-.4-5.16l-.93-3.63-.27-1.81-2-4.89-.4-1.25-.67-2a22.33,22.33,0,0,1-1.74-6.28l.4-3.76.67-3.07A10.25,10.25,0,0,1,721.56,85c.45-.75,2.19-2.42,5.22-5,.62-.46,1.29-1,2-1.67a13.45,13.45,0,0,1,2.27-1.68,6.39,6.39,0,0,0,1.61-.42c.8-.27,1.24-.55,1.33-.83l4.42-1.68,4.41-1.39,2.14-.14h2.68a2.84,2.84,0,0,0,.94.56,3.55,3.55,0,0,1,1.2.83l.94,1.4v2l.13.7-.27,1.26c-.26.09-.67.65-1.2,1.67-.27.56-1.16,1.07-2.68,1.54l-4.55,2.23-1.47,1-2.27,1.39-1.61,1.4-1.33.69-.81,1.4-.13.42-.27,2.93.27,1.25c.09.56.24,1.35.47,2.37s.69,2.63,1.4,4.82,1.39,4.49,2,6.91l.4,2.09.13,1.39L740,115a25.64,25.64,0,0,1,5.76-2.52c.17-.27,1.6-.88,4.28-1.81l1.87-1c1.07-.56,2.36-1.13,3.88-1.74s3.21-1.23,5.08-1.88l7.63-3.21q1.74-1.12,9.36-3.77L783,97.27l2.94-1.54a13.17,13.17,0,0,1,3.88-1.53l6.42-1.82,4.42-1.53,1.33-.42A37.13,37.13,0,0,0,808.52,89.17ZM706.31,155.31l2.28-.7a25.31,25.31,0,0,0,3.88-1.46c.8-.42,1.67-.93,2.6-1.54s1.59-1,1.94-1.32a31.63,31.63,0,0,0,4.15-5,11.2,11.2,0,0,0,1.74-3.55c.54-1.63.89-2.68,1.07-3.14l.54-2.65.13-1.12.13-1.67.14-1.82L723,132.85c-.09.09-.25.23-.47.41a17.45,17.45,0,0,1-1.94,1.19c-1.07.61-1.79,1-2.14,1.19a6.63,6.63,0,0,0-1.14.76c-.4.33-1.81,1.61-4.21,3.84-.09.1-.56.47-1.41,1.12a19.89,19.89,0,0,0-2.61,2.44,18.5,18.5,0,0,0-2.54,3.7l-.94,1.53a5.39,5.39,0,0,0-1.47,2.51,2.89,2.89,0,0,0-.53,1.82,2.15,2.15,0,0,0,.53,1.46,1.84,1.84,0,0,0,1.47.63Z"/><path d="M147.44,205.75h3V240h-3V223.71h-7.66V240h-3.09V205.75h3.09v16.58h7.66Z"/><path d="M196.28,238.56V240H185.35V205.75h10.93v1.43h-7.84v14.46h7.84v1.42h-7.84v15.5Z"/><path d="M236.82,240.64c-4.49,0-6.92-1.47-6.92-3.77v-28c0-1.95,2.15-3.81,6.73-3.77,4.2.05,6.91,1.39,6.91,3.9v8.7h-3v-8.66c0-1.43-.84-2.51-3.92-2.51-2.8,0-3.64,1.39-3.64,2.47v27.75c0,1.25.84,2.47,3.83,2.47s3.73-1.13,3.73-2.52V228h3v8.75C243.54,239.34,241.11,240.64,236.82,240.64Z"/><path d="M289.31,205.75h3V240h-3V223.71h-7.66V240h-3.09V205.75h3.09v16.58h7.66Z"/><path d="M334.13,205.14c4.21.05,7.29,1.39,7.29,3.9v27.75c0,2.55-2.8,3.85-7,3.85-4.48,0-7.19-1.47-7.19-3.77v-28C327.22,207,329.56,205.1,334.13,205.14Zm.28,34.12c2.9,0,3.93-1.13,3.93-2.52V209.08c0-1.43-1.12-2.51-4.21-2.51-2.8,0-3.82,1.39-3.82,2.47v27.75C330.31,238,331.33,239.26,334.41,239.26Z"/><path d="M420.06,205.44,426.6,240h-3.09l-2.14-12.21h-5.89L413.8,240h-3.08l6-34.55Zm-4.11,21h5.6l-3.26-17.84Z"/><path d="M500.29,205.75l7.65,29.39,7.1-29.39H519V240h-3V212l-6.73,28h-2.8l-7.1-28v28h-3.08V205.75Z"/><path d="M560.53,205.44,567.06,240H564l-2.14-12.21H556L554.27,240h-3.08l6-34.55Zm-4.11,21H562l-3.27-17.84Z"/><path d="M614.32,240h-3.64l-7.75-28v28h-3.08V205.75h4l7.38,27.75V205.75h3.08V240h0Z"/><path d="M656.54,205.14c4.2.05,7.28,1.39,7.28,3.9v27.75c0,2.55-2.8,3.85-7,3.85-4.49,0-7.19-1.47-7.19-3.77v-28C649.63,207,652,205.1,656.54,205.14Zm.28,34.12c2.89,0,3.92-1.13,3.92-2.52V209.08c0-1.43-1.12-2.51-4.2-2.51-2.8,0-3.83,1.39-3.83,2.47v27.75C652.71,238,653.74,239.26,656.82,239.26Z"/><path d="M344.38,188.91a5.94,5.94,0,0,1-5.81-6.06,6.4,6.4,0,0,1,2.78-5.17,140.44,140.44,0,0,1,34.22-16.29c.25-3,.6-6.43,1.05-10.13,1.61-13.24,4.54-31.11,8.26-50.32,3.6-18.66,7.63-37,11.35-51.75.47-1.85.94-3.66,1.4-5.4a171.67,171.67,0,0,1-22.1,5.89,6.07,6.07,0,0,1-.94.08,5.94,5.94,0,0,1-5.81-6.06,6.12,6.12,0,0,1,4.86-6c7.43-1.27,18.69-4.88,28.05-8,1.65-5.17,3.12-9.18,4.91-11.93a6.06,6.06,0,0,1,4.72-2.69,6,6,0,0,1,5.92,6.06,6.83,6.83,0,0,1-1,3.46,1.05,1.05,0,0,0-.08.13l1.22-.43c8-2.78,15.46-5.4,22.18-7.55a6,6,0,0,1,1.48-.28h.27a6,6,0,0,1,5.81,6.06,6.22,6.22,0,0,1-4.21,5.82c-6.43,2.06-13.75,4.63-21.51,7.36-3.45,1.21-6.94,2.44-10.41,3.64-1.1,3.79-2.26,8.15-3.48,13-3.66,14.47-7.64,32.6-11.2,51.06-3.66,18.92-6.54,36.48-8.11,49.44-.23,1.88-.44,3.68-.61,5.38a96.24,96.24,0,0,1,20.13-2.4h1.16a6.07,6.07,0,0,1,0,12.12h-1.08a88.61,88.61,0,0,0-21,3,23.78,23.78,0,0,0,.16,2.67c0,.07,0,.11,0,.16a6.61,6.61,0,0,1,1.08,3.46,6,6,0,0,1-5.81,6.06,6.12,6.12,0,0,1-4-1.62,9,9,0,0,1-2.8-6.05l0-.25c-.05-.31-.09-.64-.12-1a127.31,127.31,0,0,0-27.78,13.65A6,6,0,0,1,344.38,188.91Z"/><path d="M11.09,176.73c-.36,0-.72,0-1.08,0a10.37,10.37,0,0,1-7.59-4.37A14.79,14.79,0,0,1,0,163.62a41,41,0,0,1,1.45-9.78c2-8.05,6.19-18.47,12.45-31l20-91.14A75.67,75.67,0,0,0,21,41.59a6.06,6.06,0,0,1-3.94,1.61,5.94,5.94,0,0,1-5.81-6.06,6.55,6.55,0,0,1,1.92-4.51A88.39,88.39,0,0,1,37.35,16.18L39.86,4.75A5.8,5.8,0,0,1,51.35,6.06a6.88,6.88,0,0,1-.17,1.42l-.92,4.19a55.64,55.64,0,0,1,13-1.62c.58,0,1.15,0,1.72,0a39,39,0,0,1,11.32,2.05c10.28,3.56,17.42,12.19,19.59,23.68a49,49,0,0,1,.8,9c0,10.61-3,23.39-9,38A261.46,261.46,0,0,1,52.13,144c-12.77,16.26-25,27.36-34.33,31.25A17.54,17.54,0,0,1,11.09,176.73Zm3.41-25.85c-.75,2.19-1.35,4.2-1.8,6a27.24,27.24,0,0,0-.93,6.5c0,.44,0,.81.05,1.11A10.32,10.32,0,0,0,13.5,164c5.84-2.43,17.28-11.93,29.64-27.67A252.77,252.77,0,0,0,76.91,78C82.28,65,85,53.77,85,44.69a35.08,35.08,0,0,0-.57-6.54c-1.44-7.6-5.2-12.22-11.85-14.52a27.47,27.47,0,0,0-8.82-1.34A50.71,50.71,0,0,0,47.25,25.4L33.54,87.75c1.4-2.3,2.82-4.62,4.28-7A5.77,5.77,0,0,1,48.55,84a6.77,6.77,0,0,1-1,3.4c-9.19,14.83-16.83,28.24-22.69,39.83l-4.17,19A6,6,0,0,1,15,150.92,4.91,4.91,0,0,1,14.5,150.88Z"/></g></g></svg>